<mxfile host="app.diagrams.net" modified="2023-05-27T14:23:03.065Z" agent="Mozilla/5.0 (Macintosh; Intel Mac OS X 10_15_7) AppleWebKit/605.1.15 (KHTML, like Gecko) Version/15.1 Safari/605.1.15" etag="0Ma7EyaulTirzta0XEZH" version="21.3.4" type="github">
  <diagram name="Page-1" id="mGbS7eCVnr-DPzJ4NJ7e">
    <mxGraphModel dx="741" dy="448" grid="1" gridSize="10" guides="1" tooltips="1" connect="1" arrows="1" fold="1" page="1" pageScale="1" pageWidth="827" pageHeight="1169" math="0" shadow="0">
      <root>
        <mxCell id="0" />
        <mxCell id="1" parent="0" />
        <mxCell id="hRtDUjv6dtXBaExhfv9p-1" value="A" style="text;html=1;strokeColor=none;fillColor=none;align=center;verticalAlign=middle;whiteSpace=wrap;rounded=0;fontSize=27;" vertex="1" parent="1">
          <mxGeometry x="126" y="631" width="30" height="30" as="geometry" />
        </mxCell>
        <mxCell id="hRtDUjv6dtXBaExhfv9p-2" value="B" style="text;html=1;strokeColor=none;fillColor=none;align=center;verticalAlign=middle;whiteSpace=wrap;rounded=0;fontSize=27;" vertex="1" parent="1">
          <mxGeometry x="189" y="631" width="30" height="30" as="geometry" />
        </mxCell>
        <mxCell id="hRtDUjv6dtXBaExhfv9p-3" value="" style="endArrow=classic;html=1;rounded=0;" edge="1" parent="1" target="hRtDUjv6dtXBaExhfv9p-2">
          <mxGeometry width="50" height="50" relative="1" as="geometry">
            <mxPoint x="204" y="701" as="sourcePoint" />
            <mxPoint x="256" y="646" as="targetPoint" />
          </mxGeometry>
        </mxCell>
        <mxCell id="hRtDUjv6dtXBaExhfv9p-4" value="" style="endArrow=classic;html=1;rounded=0;entryX=0.75;entryY=1;entryDx=0;entryDy=0;" edge="1" parent="1" target="hRtDUjv6dtXBaExhfv9p-1">
          <mxGeometry width="50" height="50" relative="1" as="geometry">
            <mxPoint x="194" y="701" as="sourcePoint" />
            <mxPoint x="245" y="700" as="targetPoint" />
          </mxGeometry>
        </mxCell>
        <mxCell id="hRtDUjv6dtXBaExhfv9p-5" value="D" style="text;html=1;strokeColor=none;fillColor=none;align=center;verticalAlign=middle;whiteSpace=wrap;rounded=0;fontSize=27;" vertex="1" parent="1">
          <mxGeometry x="178" y="702" width="60" height="30" as="geometry" />
        </mxCell>
        <mxCell id="hRtDUjv6dtXBaExhfv9p-6" value="C" style="text;html=1;strokeColor=none;fillColor=none;align=center;verticalAlign=middle;whiteSpace=wrap;rounded=0;fontSize=27;" vertex="1" parent="1">
          <mxGeometry x="260" y="631" width="30" height="30" as="geometry" />
        </mxCell>
        <mxCell id="hRtDUjv6dtXBaExhfv9p-7" value="" style="endArrow=classic;html=1;rounded=0;entryX=0;entryY=0.5;entryDx=0;entryDy=0;exitX=1;exitY=0.5;exitDx=0;exitDy=0;" edge="1" parent="1" source="hRtDUjv6dtXBaExhfv9p-2" target="hRtDUjv6dtXBaExhfv9p-6">
          <mxGeometry width="50" height="50" relative="1" as="geometry">
            <mxPoint x="214" y="711" as="sourcePoint" />
            <mxPoint x="213" y="671" as="targetPoint" />
          </mxGeometry>
        </mxCell>
        <mxCell id="hRtDUjv6dtXBaExhfv9p-8" value="&lt;h1 style=&quot;text-align: center; font-size: 15px;&quot;&gt;&lt;font style=&quot;font-size: 15px;&quot;&gt;&lt;font style=&quot;font-size: 15px;&quot;&gt;Conditional Independenc&lt;/font&gt;e&lt;/font&gt;&lt;/h1&gt;&lt;div style=&quot;text-align: center;&quot;&gt;&lt;font style=&quot;font-size: 15px;&quot;&gt;A &amp;nbsp; &amp;nbsp; &amp;nbsp; &amp;nbsp; &amp;nbsp;B | C,D&lt;/font&gt;&lt;/div&gt;&lt;p style=&quot;text-align: center; font-size: 15px;&quot;&gt;&lt;span style=&quot;&quot;&gt;P(A|B,C,D) = P(A|C,D)&lt;/span&gt;&lt;br&gt;&lt;/p&gt;" style="text;html=1;strokeColor=#b85450;fillColor=#f8cecc;spacing=5;spacingTop=-20;whiteSpace=wrap;overflow=hidden;rounded=0;" vertex="1" parent="1">
          <mxGeometry x="129" y="761" width="170" height="110" as="geometry" />
        </mxCell>
        <mxCell id="hRtDUjv6dtXBaExhfv9p-9" value="" style="group" vertex="1" connectable="0" parent="1">
          <mxGeometry x="191" y="807" width="23" height="20" as="geometry" />
        </mxCell>
        <mxCell id="hRtDUjv6dtXBaExhfv9p-10" value="" style="endArrow=none;html=1;rounded=0;" edge="1" parent="hRtDUjv6dtXBaExhfv9p-9">
          <mxGeometry width="50" height="50" relative="1" as="geometry">
            <mxPoint x="23" y="20" as="sourcePoint" />
            <mxPoint y="20" as="targetPoint" />
          </mxGeometry>
        </mxCell>
        <mxCell id="hRtDUjv6dtXBaExhfv9p-11" value="" style="endArrow=none;html=1;rounded=0;" edge="1" parent="hRtDUjv6dtXBaExhfv9p-9">
          <mxGeometry width="50" height="50" relative="1" as="geometry">
            <mxPoint x="8.625" as="sourcePoint" />
            <mxPoint x="8.625" y="20" as="targetPoint" />
          </mxGeometry>
        </mxCell>
        <mxCell id="hRtDUjv6dtXBaExhfv9p-12" value="" style="endArrow=none;html=1;rounded=0;" edge="1" parent="hRtDUjv6dtXBaExhfv9p-9">
          <mxGeometry width="50" height="50" relative="1" as="geometry">
            <mxPoint x="13.225" as="sourcePoint" />
            <mxPoint x="13.225" y="20" as="targetPoint" />
            <Array as="points">
              <mxPoint x="13.225" y="6.666666666666666" />
            </Array>
          </mxGeometry>
        </mxCell>
        <mxCell id="hRtDUjv6dtXBaExhfv9p-13" value="&lt;h1 style=&quot;text-align: center; font-size: 15px;&quot;&gt;&lt;font style=&quot;font-size: 15px;&quot;&gt;&lt;font style=&quot;font-size: 15px;&quot;&gt;Conditional Independenc&lt;/font&gt;e&lt;/font&gt;&lt;/h1&gt;&lt;p style=&quot;text-align: center; font-size: 15px;&quot;&gt;&lt;span style=&quot;&quot;&gt;D &amp;nbsp; &amp;nbsp; &amp;nbsp; &amp;nbsp; C|B&lt;/span&gt;&lt;/p&gt;&lt;p style=&quot;text-align: center; font-size: 15px;&quot;&gt;&lt;span style=&quot;&quot;&gt;P(D|A,B,C) = P(D|A,B)&lt;/span&gt;&lt;br&gt;&lt;/p&gt;" style="text;html=1;strokeColor=#b85450;fillColor=#f8cecc;spacing=5;spacingTop=-20;whiteSpace=wrap;overflow=hidden;rounded=0;" vertex="1" parent="1">
          <mxGeometry x="331" y="761" width="170" height="110" as="geometry" />
        </mxCell>
        <mxCell id="hRtDUjv6dtXBaExhfv9p-14" value="" style="group" vertex="1" connectable="0" parent="1">
          <mxGeometry x="398" y="808" width="23" height="20" as="geometry" />
        </mxCell>
        <mxCell id="hRtDUjv6dtXBaExhfv9p-15" value="" style="endArrow=none;html=1;rounded=0;" edge="1" parent="hRtDUjv6dtXBaExhfv9p-14">
          <mxGeometry width="50" height="50" relative="1" as="geometry">
            <mxPoint x="23" y="20" as="sourcePoint" />
            <mxPoint y="20" as="targetPoint" />
          </mxGeometry>
        </mxCell>
        <mxCell id="hRtDUjv6dtXBaExhfv9p-16" value="" style="endArrow=none;html=1;rounded=0;" edge="1" parent="hRtDUjv6dtXBaExhfv9p-14">
          <mxGeometry width="50" height="50" relative="1" as="geometry">
            <mxPoint x="8.625" as="sourcePoint" />
            <mxPoint x="8.625" y="20" as="targetPoint" />
          </mxGeometry>
        </mxCell>
        <mxCell id="hRtDUjv6dtXBaExhfv9p-17" value="" style="endArrow=none;html=1;rounded=0;" edge="1" parent="hRtDUjv6dtXBaExhfv9p-14">
          <mxGeometry width="50" height="50" relative="1" as="geometry">
            <mxPoint x="13.225" as="sourcePoint" />
            <mxPoint x="13.225" y="20" as="targetPoint" />
            <Array as="points">
              <mxPoint x="13.225" y="6.666666666666666" />
            </Array>
          </mxGeometry>
        </mxCell>
        <mxCell id="hRtDUjv6dtXBaExhfv9p-18" value="" style="endArrow=classic;html=1;rounded=0;exitX=0.5;exitY=0;exitDx=0;exitDy=0;entryX=0.25;entryY=0;entryDx=0;entryDy=0;" edge="1" parent="1" source="hRtDUjv6dtXBaExhfv9p-1" target="hRtDUjv6dtXBaExhfv9p-6">
          <mxGeometry width="50" height="50" relative="1" as="geometry">
            <mxPoint x="188" y="680" as="sourcePoint" />
            <mxPoint x="238" y="630" as="targetPoint" />
            <Array as="points">
              <mxPoint x="208" y="620" />
            </Array>
          </mxGeometry>
        </mxCell>
      </root>
    </mxGraphModel>
  </diagram>
</mxfile>
